<mxfile host="app.diagrams.net" modified="2021-05-28T20:54:20.833Z" agent="5.0 (Windows NT 10.0; Win64; x64) AppleWebKit/537.36 (KHTML, like Gecko) Chrome/91.0.4472.77 Safari/537.36" etag="7nYVelJ2YZHGgsiF4NGE" version="14.6.13" type="github">
  <diagram id="PL0SfPAUBT8Jp46XiV5c" name="Page-1">
    <mxGraphModel dx="1102" dy="582" grid="1" gridSize="10" guides="1" tooltips="1" connect="1" arrows="1" fold="1" page="1" pageScale="1" pageWidth="850" pageHeight="1100" math="0" shadow="0">
      <root>
        <mxCell id="0" />
        <mxCell id="1" parent="0" />
        <mxCell id="C8ZqAMLiRGy7gkoalKvZ-1" value="" style="rounded=0;whiteSpace=wrap;html=1;" parent="1" vertex="1">
          <mxGeometry x="70" y="100" width="650" height="400" as="geometry" />
        </mxCell>
        <mxCell id="C8ZqAMLiRGy7gkoalKvZ-2" value="Control" style="rounded=1;whiteSpace=wrap;html=1;" parent="1" vertex="1">
          <mxGeometry x="135" y="120" width="540" height="60" as="geometry" />
        </mxCell>
        <mxCell id="C8ZqAMLiRGy7gkoalKvZ-4" value="" style="rounded=0;whiteSpace=wrap;html=1;" parent="1" vertex="1">
          <mxGeometry x="100" y="190" width="610" height="300" as="geometry" />
        </mxCell>
        <mxCell id="C8ZqAMLiRGy7gkoalKvZ-19" value="" style="group" parent="1" vertex="1" connectable="0">
          <mxGeometry x="120" y="230" width="570" height="50" as="geometry" />
        </mxCell>
        <mxCell id="C8ZqAMLiRGy7gkoalKvZ-5" value="" style="rounded=0;whiteSpace=wrap;html=1;" parent="C8ZqAMLiRGy7gkoalKvZ-19" vertex="1">
          <mxGeometry width="570" height="50" as="geometry" />
        </mxCell>
        <mxCell id="C8ZqAMLiRGy7gkoalKvZ-6" value="Cell" style="rounded=0;whiteSpace=wrap;html=1;" parent="C8ZqAMLiRGy7gkoalKvZ-19" vertex="1">
          <mxGeometry x="20" y="15" width="40" height="20" as="geometry" />
        </mxCell>
        <mxCell id="C8ZqAMLiRGy7gkoalKvZ-7" value="&lt;span&gt;Cell&lt;/span&gt;" style="rounded=0;whiteSpace=wrap;html=1;" parent="C8ZqAMLiRGy7gkoalKvZ-19" vertex="1">
          <mxGeometry x="70" y="15" width="40" height="20" as="geometry" />
        </mxCell>
        <mxCell id="C8ZqAMLiRGy7gkoalKvZ-8" value="&lt;span&gt;Cell&lt;/span&gt;" style="rounded=0;whiteSpace=wrap;html=1;" parent="C8ZqAMLiRGy7gkoalKvZ-19" vertex="1">
          <mxGeometry x="410" y="15" width="40" height="20" as="geometry" />
        </mxCell>
        <mxCell id="C8ZqAMLiRGy7gkoalKvZ-9" value="&lt;span&gt;Cell&lt;/span&gt;" style="rounded=0;whiteSpace=wrap;html=1;" parent="C8ZqAMLiRGy7gkoalKvZ-19" vertex="1">
          <mxGeometry x="120" y="15" width="40" height="20" as="geometry" />
        </mxCell>
        <mxCell id="C8ZqAMLiRGy7gkoalKvZ-10" value="&lt;span&gt;Cell&lt;/span&gt;" style="rounded=0;whiteSpace=wrap;html=1;" parent="C8ZqAMLiRGy7gkoalKvZ-19" vertex="1">
          <mxGeometry x="360" y="15" width="40" height="20" as="geometry" />
        </mxCell>
        <mxCell id="C8ZqAMLiRGy7gkoalKvZ-11" value="&lt;span&gt;Cell&lt;/span&gt;" style="rounded=0;whiteSpace=wrap;html=1;" parent="C8ZqAMLiRGy7gkoalKvZ-19" vertex="1">
          <mxGeometry x="170" y="15" width="40" height="20" as="geometry" />
        </mxCell>
        <mxCell id="C8ZqAMLiRGy7gkoalKvZ-12" value="&lt;span&gt;Cell&lt;/span&gt;" style="rounded=0;whiteSpace=wrap;html=1;" parent="C8ZqAMLiRGy7gkoalKvZ-19" vertex="1">
          <mxGeometry x="310" y="15" width="40" height="20" as="geometry" />
        </mxCell>
        <mxCell id="C8ZqAMLiRGy7gkoalKvZ-13" value="&lt;span&gt;Cell&lt;/span&gt;" style="rounded=0;whiteSpace=wrap;html=1;" parent="C8ZqAMLiRGy7gkoalKvZ-19" vertex="1">
          <mxGeometry x="220" y="15" width="40" height="20" as="geometry" />
        </mxCell>
        <mxCell id="C8ZqAMLiRGy7gkoalKvZ-14" value="&lt;span&gt;Cell&lt;/span&gt;" style="rounded=0;whiteSpace=wrap;html=1;" parent="C8ZqAMLiRGy7gkoalKvZ-19" vertex="1">
          <mxGeometry x="265" y="15" width="40" height="20" as="geometry" />
        </mxCell>
        <mxCell id="C8ZqAMLiRGy7gkoalKvZ-17" value="&lt;span&gt;Cell&lt;/span&gt;" style="rounded=0;whiteSpace=wrap;html=1;" parent="C8ZqAMLiRGy7gkoalKvZ-19" vertex="1">
          <mxGeometry x="460" y="15" width="40" height="20" as="geometry" />
        </mxCell>
        <mxCell id="C8ZqAMLiRGy7gkoalKvZ-18" value="&lt;span&gt;Cell&lt;/span&gt;" style="rounded=0;whiteSpace=wrap;html=1;" parent="C8ZqAMLiRGy7gkoalKvZ-19" vertex="1">
          <mxGeometry x="510" y="15" width="40" height="20" as="geometry" />
        </mxCell>
        <mxCell id="C8ZqAMLiRGy7gkoalKvZ-59" value="Row" style="text;html=1;strokeColor=none;fillColor=none;align=center;verticalAlign=middle;whiteSpace=wrap;rounded=0;" parent="C8ZqAMLiRGy7gkoalKvZ-19" vertex="1">
          <mxGeometry x="240" y="-5" width="40" height="20" as="geometry" />
        </mxCell>
        <mxCell id="C8ZqAMLiRGy7gkoalKvZ-20" value="" style="group" parent="1" vertex="1" connectable="0">
          <mxGeometry x="120" y="290" width="570" height="50" as="geometry" />
        </mxCell>
        <mxCell id="C8ZqAMLiRGy7gkoalKvZ-21" value="" style="rounded=0;whiteSpace=wrap;html=1;" parent="C8ZqAMLiRGy7gkoalKvZ-20" vertex="1">
          <mxGeometry width="570" height="50" as="geometry" />
        </mxCell>
        <mxCell id="C8ZqAMLiRGy7gkoalKvZ-22" value="Cell" style="rounded=0;whiteSpace=wrap;html=1;" parent="C8ZqAMLiRGy7gkoalKvZ-20" vertex="1">
          <mxGeometry x="20" y="15" width="40" height="20" as="geometry" />
        </mxCell>
        <mxCell id="C8ZqAMLiRGy7gkoalKvZ-23" value="&lt;span&gt;Cell&lt;/span&gt;" style="rounded=0;whiteSpace=wrap;html=1;" parent="C8ZqAMLiRGy7gkoalKvZ-20" vertex="1">
          <mxGeometry x="70" y="15" width="40" height="20" as="geometry" />
        </mxCell>
        <mxCell id="C8ZqAMLiRGy7gkoalKvZ-24" value="&lt;span&gt;Cell&lt;/span&gt;" style="rounded=0;whiteSpace=wrap;html=1;" parent="C8ZqAMLiRGy7gkoalKvZ-20" vertex="1">
          <mxGeometry x="410" y="15" width="40" height="20" as="geometry" />
        </mxCell>
        <mxCell id="C8ZqAMLiRGy7gkoalKvZ-25" value="&lt;span&gt;Cell&lt;/span&gt;" style="rounded=0;whiteSpace=wrap;html=1;" parent="C8ZqAMLiRGy7gkoalKvZ-20" vertex="1">
          <mxGeometry x="120" y="15" width="40" height="20" as="geometry" />
        </mxCell>
        <mxCell id="C8ZqAMLiRGy7gkoalKvZ-26" value="&lt;span&gt;Cell&lt;/span&gt;" style="rounded=0;whiteSpace=wrap;html=1;" parent="C8ZqAMLiRGy7gkoalKvZ-20" vertex="1">
          <mxGeometry x="360" y="15" width="40" height="20" as="geometry" />
        </mxCell>
        <mxCell id="C8ZqAMLiRGy7gkoalKvZ-27" value="&lt;span&gt;Cell&lt;/span&gt;" style="rounded=0;whiteSpace=wrap;html=1;" parent="C8ZqAMLiRGy7gkoalKvZ-20" vertex="1">
          <mxGeometry x="170" y="15" width="40" height="20" as="geometry" />
        </mxCell>
        <mxCell id="C8ZqAMLiRGy7gkoalKvZ-28" value="&lt;span&gt;Cell&lt;/span&gt;" style="rounded=0;whiteSpace=wrap;html=1;" parent="C8ZqAMLiRGy7gkoalKvZ-20" vertex="1">
          <mxGeometry x="310" y="15" width="40" height="20" as="geometry" />
        </mxCell>
        <mxCell id="C8ZqAMLiRGy7gkoalKvZ-29" value="&lt;span&gt;Cell&lt;/span&gt;" style="rounded=0;whiteSpace=wrap;html=1;" parent="C8ZqAMLiRGy7gkoalKvZ-20" vertex="1">
          <mxGeometry x="220" y="15" width="40" height="20" as="geometry" />
        </mxCell>
        <mxCell id="C8ZqAMLiRGy7gkoalKvZ-30" value="&lt;span&gt;Cell&lt;/span&gt;" style="rounded=0;whiteSpace=wrap;html=1;" parent="C8ZqAMLiRGy7gkoalKvZ-20" vertex="1">
          <mxGeometry x="265" y="15" width="40" height="20" as="geometry" />
        </mxCell>
        <mxCell id="C8ZqAMLiRGy7gkoalKvZ-31" value="&lt;span&gt;Cell&lt;/span&gt;" style="rounded=0;whiteSpace=wrap;html=1;" parent="C8ZqAMLiRGy7gkoalKvZ-20" vertex="1">
          <mxGeometry x="460" y="15" width="40" height="20" as="geometry" />
        </mxCell>
        <mxCell id="C8ZqAMLiRGy7gkoalKvZ-32" value="&lt;span&gt;Cell&lt;/span&gt;" style="rounded=0;whiteSpace=wrap;html=1;" parent="C8ZqAMLiRGy7gkoalKvZ-20" vertex="1">
          <mxGeometry x="510" y="15" width="40" height="20" as="geometry" />
        </mxCell>
        <mxCell id="C8ZqAMLiRGy7gkoalKvZ-33" value="" style="group" parent="1" vertex="1" connectable="0">
          <mxGeometry x="120" y="360" width="570" height="50" as="geometry" />
        </mxCell>
        <mxCell id="C8ZqAMLiRGy7gkoalKvZ-34" value="" style="rounded=0;whiteSpace=wrap;html=1;" parent="C8ZqAMLiRGy7gkoalKvZ-33" vertex="1">
          <mxGeometry width="570" height="50" as="geometry" />
        </mxCell>
        <mxCell id="C8ZqAMLiRGy7gkoalKvZ-35" value="Cell" style="rounded=0;whiteSpace=wrap;html=1;" parent="C8ZqAMLiRGy7gkoalKvZ-33" vertex="1">
          <mxGeometry x="20" y="15" width="40" height="20" as="geometry" />
        </mxCell>
        <mxCell id="C8ZqAMLiRGy7gkoalKvZ-36" value="&lt;span&gt;Cell&lt;/span&gt;" style="rounded=0;whiteSpace=wrap;html=1;" parent="C8ZqAMLiRGy7gkoalKvZ-33" vertex="1">
          <mxGeometry x="70" y="15" width="40" height="20" as="geometry" />
        </mxCell>
        <mxCell id="C8ZqAMLiRGy7gkoalKvZ-37" value="&lt;span&gt;Cell&lt;/span&gt;" style="rounded=0;whiteSpace=wrap;html=1;" parent="C8ZqAMLiRGy7gkoalKvZ-33" vertex="1">
          <mxGeometry x="410" y="15" width="40" height="20" as="geometry" />
        </mxCell>
        <mxCell id="C8ZqAMLiRGy7gkoalKvZ-38" value="&lt;span&gt;Cell&lt;/span&gt;" style="rounded=0;whiteSpace=wrap;html=1;" parent="C8ZqAMLiRGy7gkoalKvZ-33" vertex="1">
          <mxGeometry x="120" y="15" width="40" height="20" as="geometry" />
        </mxCell>
        <mxCell id="C8ZqAMLiRGy7gkoalKvZ-39" value="&lt;span&gt;Cell&lt;/span&gt;" style="rounded=0;whiteSpace=wrap;html=1;" parent="C8ZqAMLiRGy7gkoalKvZ-33" vertex="1">
          <mxGeometry x="360" y="15" width="40" height="20" as="geometry" />
        </mxCell>
        <mxCell id="C8ZqAMLiRGy7gkoalKvZ-40" value="&lt;span&gt;Cell&lt;/span&gt;" style="rounded=0;whiteSpace=wrap;html=1;" parent="C8ZqAMLiRGy7gkoalKvZ-33" vertex="1">
          <mxGeometry x="170" y="15" width="40" height="20" as="geometry" />
        </mxCell>
        <mxCell id="C8ZqAMLiRGy7gkoalKvZ-41" value="&lt;span&gt;Cell&lt;/span&gt;" style="rounded=0;whiteSpace=wrap;html=1;" parent="C8ZqAMLiRGy7gkoalKvZ-33" vertex="1">
          <mxGeometry x="310" y="15" width="40" height="20" as="geometry" />
        </mxCell>
        <mxCell id="C8ZqAMLiRGy7gkoalKvZ-42" value="&lt;span&gt;Cell&lt;/span&gt;" style="rounded=0;whiteSpace=wrap;html=1;" parent="C8ZqAMLiRGy7gkoalKvZ-33" vertex="1">
          <mxGeometry x="220" y="15" width="40" height="20" as="geometry" />
        </mxCell>
        <mxCell id="C8ZqAMLiRGy7gkoalKvZ-43" value="&lt;span&gt;Cell&lt;/span&gt;" style="rounded=0;whiteSpace=wrap;html=1;" parent="C8ZqAMLiRGy7gkoalKvZ-33" vertex="1">
          <mxGeometry x="265" y="15" width="40" height="20" as="geometry" />
        </mxCell>
        <mxCell id="C8ZqAMLiRGy7gkoalKvZ-44" value="&lt;span&gt;Cell&lt;/span&gt;" style="rounded=0;whiteSpace=wrap;html=1;" parent="C8ZqAMLiRGy7gkoalKvZ-33" vertex="1">
          <mxGeometry x="460" y="15" width="40" height="20" as="geometry" />
        </mxCell>
        <mxCell id="C8ZqAMLiRGy7gkoalKvZ-45" value="&lt;span&gt;Cell&lt;/span&gt;" style="rounded=0;whiteSpace=wrap;html=1;" parent="C8ZqAMLiRGy7gkoalKvZ-33" vertex="1">
          <mxGeometry x="510" y="15" width="40" height="20" as="geometry" />
        </mxCell>
        <mxCell id="C8ZqAMLiRGy7gkoalKvZ-46" value="" style="group" parent="1" vertex="1" connectable="0">
          <mxGeometry x="120" y="430" width="570" height="50" as="geometry" />
        </mxCell>
        <mxCell id="C8ZqAMLiRGy7gkoalKvZ-47" value="" style="rounded=0;whiteSpace=wrap;html=1;" parent="C8ZqAMLiRGy7gkoalKvZ-46" vertex="1">
          <mxGeometry width="570" height="50" as="geometry" />
        </mxCell>
        <mxCell id="C8ZqAMLiRGy7gkoalKvZ-48" value="Cell" style="rounded=0;whiteSpace=wrap;html=1;" parent="C8ZqAMLiRGy7gkoalKvZ-46" vertex="1">
          <mxGeometry x="20" y="15" width="40" height="20" as="geometry" />
        </mxCell>
        <mxCell id="C8ZqAMLiRGy7gkoalKvZ-49" value="&lt;span&gt;Cell&lt;/span&gt;" style="rounded=0;whiteSpace=wrap;html=1;" parent="C8ZqAMLiRGy7gkoalKvZ-46" vertex="1">
          <mxGeometry x="70" y="15" width="40" height="20" as="geometry" />
        </mxCell>
        <mxCell id="C8ZqAMLiRGy7gkoalKvZ-50" value="&lt;span&gt;Cell&lt;/span&gt;" style="rounded=0;whiteSpace=wrap;html=1;" parent="C8ZqAMLiRGy7gkoalKvZ-46" vertex="1">
          <mxGeometry x="410" y="15" width="40" height="20" as="geometry" />
        </mxCell>
        <mxCell id="C8ZqAMLiRGy7gkoalKvZ-51" value="&lt;span&gt;Cell&lt;/span&gt;" style="rounded=0;whiteSpace=wrap;html=1;" parent="C8ZqAMLiRGy7gkoalKvZ-46" vertex="1">
          <mxGeometry x="120" y="15" width="40" height="20" as="geometry" />
        </mxCell>
        <mxCell id="C8ZqAMLiRGy7gkoalKvZ-52" value="&lt;span&gt;Cell&lt;/span&gt;" style="rounded=0;whiteSpace=wrap;html=1;" parent="C8ZqAMLiRGy7gkoalKvZ-46" vertex="1">
          <mxGeometry x="360" y="15" width="40" height="20" as="geometry" />
        </mxCell>
        <mxCell id="C8ZqAMLiRGy7gkoalKvZ-53" value="&lt;span&gt;Cell&lt;/span&gt;" style="rounded=0;whiteSpace=wrap;html=1;" parent="C8ZqAMLiRGy7gkoalKvZ-46" vertex="1">
          <mxGeometry x="170" y="15" width="40" height="20" as="geometry" />
        </mxCell>
        <mxCell id="C8ZqAMLiRGy7gkoalKvZ-54" value="&lt;span&gt;Cell&lt;/span&gt;" style="rounded=0;whiteSpace=wrap;html=1;" parent="C8ZqAMLiRGy7gkoalKvZ-46" vertex="1">
          <mxGeometry x="310" y="15" width="40" height="20" as="geometry" />
        </mxCell>
        <mxCell id="C8ZqAMLiRGy7gkoalKvZ-55" value="&lt;span&gt;Cell&lt;/span&gt;" style="rounded=0;whiteSpace=wrap;html=1;" parent="C8ZqAMLiRGy7gkoalKvZ-46" vertex="1">
          <mxGeometry x="220" y="15" width="40" height="20" as="geometry" />
        </mxCell>
        <mxCell id="C8ZqAMLiRGy7gkoalKvZ-56" value="&lt;span&gt;Cell&lt;/span&gt;" style="rounded=0;whiteSpace=wrap;html=1;" parent="C8ZqAMLiRGy7gkoalKvZ-46" vertex="1">
          <mxGeometry x="265" y="15" width="40" height="20" as="geometry" />
        </mxCell>
        <mxCell id="C8ZqAMLiRGy7gkoalKvZ-57" value="&lt;span&gt;Cell&lt;/span&gt;" style="rounded=0;whiteSpace=wrap;html=1;" parent="C8ZqAMLiRGy7gkoalKvZ-46" vertex="1">
          <mxGeometry x="460" y="15" width="40" height="20" as="geometry" />
        </mxCell>
        <mxCell id="C8ZqAMLiRGy7gkoalKvZ-58" value="&lt;span&gt;Cell&lt;/span&gt;" style="rounded=0;whiteSpace=wrap;html=1;" parent="C8ZqAMLiRGy7gkoalKvZ-46" vertex="1">
          <mxGeometry x="510" y="15" width="40" height="20" as="geometry" />
        </mxCell>
        <mxCell id="C8ZqAMLiRGy7gkoalKvZ-60" value="Minesweeper Field" style="text;html=1;strokeColor=none;fillColor=none;align=center;verticalAlign=middle;whiteSpace=wrap;rounded=0;" parent="1" vertex="1">
          <mxGeometry x="380" y="200" width="40" height="20" as="geometry" />
        </mxCell>
        <mxCell id="C8ZqAMLiRGy7gkoalKvZ-61" value="Game" style="text;html=1;strokeColor=none;fillColor=none;align=center;verticalAlign=middle;whiteSpace=wrap;rounded=0;" parent="1" vertex="1">
          <mxGeometry x="380" y="100" width="40" height="20" as="geometry" />
        </mxCell>
      </root>
    </mxGraphModel>
  </diagram>
</mxfile>
